<svg xmlns="http://www.w3.org/2000/svg" viewBox="0 0 222 64" width="222" height="64" role="img" aria-label="logscry">
  <title>logscry</title>
  <g id="mark">
    <path d="M8 22 Q32 -6 56 22 Q32 50 8 22 Z" fill="none" stroke="#1c2933" stroke-width="4.5" stroke-linejoin="round"/>
    <circle cx="32" cy="22" r="6.5" fill="var(--logscry-accent, #12A594)"/>
    <path d="M10 48 H54" fill="none" stroke="#1c2933" stroke-width="4" stroke-linecap="round"/>
    <path d="M10 58 H34" fill="none" stroke="#1c2933" stroke-width="4" stroke-linecap="round"/>
  </g>
  <path id="wordmark" fill="#1c2933" d="M84.8 44.0L84.8 16.0L89.8 16.0L89.8 44.0ZM103.5 44.6Q100.5 44.6 98.2 43.4Q95.8 42.2 94.4 39.9Q93.1 37.6 93.1 34.4L93.1 33.8Q93.1 30.6 94.4 28.3Q95.8 26.0 98.2 24.8Q100.5 23.6 103.5 23.6Q106.4 23.6 108.8 24.8Q111.2 26.0 112.5 28.3Q113.9 30.6 113.9 33.8L113.9 34.4Q113.9 37.6 112.5 39.9Q111.2 42.2 108.8 43.4Q106.4 44.6 103.5 44.6ZM103.5 40.1Q105.8 40.1 107.3 38.6Q108.8 37.1 108.8 34.3L108.8 33.9Q108.8 31.1 107.3 29.6Q105.8 28.1 103.5 28.1Q101.2 28.1 99.6 29.6Q98.1 31.1 98.1 33.9L98.1 34.3Q98.1 37.1 99.6 38.6Q101.2 40.1 103.5 40.1ZM116.2 34.2L116.2 33.5Q116.2 30.4 117.4 28.2Q118.6 26.0 120.7 24.8Q122.8 23.6 125.2 23.6Q127.9 23.6 129.3 24.6Q130.7 25.5 131.4 26.6L132.1 26.6L132.1 24.2L137.0 24.2L137.0 47.5Q137.0 49.6 135.8 50.8Q134.6 52.0 132.6 52.0L119.4 52.0L119.4 47.6L130.9 47.6Q132.0 47.6 132.0 46.4L132.0 41.2L131.3 41.2Q130.9 41.9 130.2 42.5Q129.4 43.2 128.2 43.6Q127.0 44.1 125.2 44.1Q122.8 44.1 120.7 42.9Q118.6 41.7 117.4 39.5Q116.2 37.3 116.2 34.2ZM126.6 39.7Q129.0 39.7 130.5 38.2Q132.1 36.7 132.1 34.0L132.1 33.6Q132.1 30.9 130.5 29.5Q129.0 28.0 126.6 28.0Q124.3 28.0 122.8 29.5Q121.2 30.9 121.2 33.6L121.2 34.0Q121.2 36.7 122.8 38.2Q124.3 39.7 126.6 39.7ZM149.5 44.6Q145.6 44.6 143.1 42.9Q140.6 41.2 140.1 38.1L144.8 36.9Q145.0 38.3 145.7 39.1Q146.4 39.9 147.3 40.2Q148.3 40.6 149.5 40.6Q151.2 40.6 152.1 39.9Q152.9 39.3 152.9 38.4Q152.9 37.5 152.1 37.0Q151.3 36.5 149.6 36.2L148.4 36.0Q146.4 35.6 144.6 34.9Q142.9 34.2 141.9 32.9Q140.8 31.7 140.8 29.7Q140.8 26.8 143.0 25.2Q145.2 23.6 148.7 23.6Q152.0 23.6 154.2 25.1Q156.4 26.6 157.1 29.0L152.4 30.4Q152.1 28.9 151.1 28.2Q150.1 27.6 148.7 27.6Q147.2 27.6 146.5 28.1Q145.7 28.6 145.7 29.5Q145.7 30.4 146.5 30.9Q147.3 31.4 148.7 31.6L149.8 31.8Q152.0 32.2 153.9 32.9Q155.7 33.5 156.7 34.7Q157.8 36.0 157.8 38.0Q157.8 41.2 155.5 42.9Q153.3 44.6 149.5 44.6ZM170.1 44.6Q167.2 44.6 164.9 43.4Q162.6 42.2 161.2 39.9Q159.8 37.6 159.8 34.4L159.8 33.8Q159.8 30.6 161.2 28.3Q162.6 26.0 164.9 24.8Q167.2 23.6 170.1 23.6Q173.0 23.6 175.0 24.6Q177.0 25.6 178.3 27.3Q179.6 29.1 180.0 31.3L175.1 32.3Q174.9 31.1 174.4 30.2Q173.8 29.2 172.8 28.6Q171.8 28.1 170.2 28.1Q168.7 28.1 167.5 28.7Q166.3 29.4 165.6 30.7Q164.9 32.0 164.9 33.9L164.9 34.3Q164.9 36.2 165.6 37.5Q166.3 38.8 167.5 39.4Q168.7 40.1 170.2 40.1Q172.5 40.1 173.7 38.9Q174.9 37.7 175.2 35.8L180.1 37.0Q179.6 39.1 178.3 40.8Q177.0 42.6 175.0 43.6Q173.0 44.6 170.1 44.6ZM182.8 44.0L182.8 24.2L187.8 24.2L187.8 26.4L188.5 26.4Q189.0 25.2 190.0 24.6Q191.0 24.1 192.4 24.1L194.8 24.1L194.8 28.6L192.3 28.6Q190.4 28.6 189.1 29.6Q187.9 30.6 187.9 32.7L187.9 44.0ZM199.4 52.0L199.4 47.6L210.2 47.6Q211.4 47.6 211.4 46.4L211.4 41.4L210.6 41.4Q210.3 42.1 209.6 42.8Q209.0 43.4 207.8 43.9Q206.6 44.3 204.8 44.3Q202.5 44.3 200.8 43.3Q199.0 42.2 198.1 40.3Q197.1 38.4 197.1 36.0L197.1 24.2L202.2 24.2L202.2 35.6Q202.2 37.8 203.3 39.0Q204.4 40.1 206.4 40.1Q208.7 40.1 210.0 38.5Q211.3 37.0 211.3 34.2L211.3 24.2L216.3 24.2L216.3 47.5Q216.3 49.6 215.1 50.8Q213.9 52.0 211.9 52.0Z"/>
</svg>
